<svg width="20" height="20" fill="none" xmlns="http://www.w3.org/2000/svg"><path d="M18.421 13.168c-1.234 0-2.442-.192-3.588-.571-.56-.193-1.193-.044-1.561.33l-2.27 1.715C8.396 13.252 6.728 11.586 5.356 9l1.668-2.217c.42-.42.57-1.035.39-1.61a11.447 11.447 0 01-.573-3.593A1.58 1.58 0 005.263 0H1.58A1.58 1.58 0 000 1.579C0 11.736 8.264 20 18.421 20A1.58 1.58 0 0020 18.421v-3.674a1.58 1.58 0 00-1.579-1.579zm.526 5.253c0 .29-.236.526-.526.526-9.577 0-17.368-7.791-17.368-17.368 0-.29.236-.526.526-.526h3.684c.29 0 .527.235.527.526 0 1.344.21 2.664.623 3.916.06.197.011.4-.181.6L4.316 8.632a.526.526 0 00-.049.555c1.561 3.067 3.457 4.963 6.546 6.546a.524.524 0 00.556-.049l2.592-1.964a.528.528 0 01.536-.125c1.259.416 2.579.626 3.924.626.29 0 .527.236.527.526v3.674z" fill="#101315"/></svg>