<svg width="20" height="20" fill="none" xmlns="http://www.w3.org/2000/svg"><path d="M17.917 20H4.583A2.086 2.086 0 012.5 17.917v-5a.417.417 0 01.833 0v5c0 .689.561 1.25 1.25 1.25h13.334c.689 0 1.25-.561 1.25-1.25V4.583c0-.689-.561-1.25-1.25-1.25h-7.5a.417.417 0 010-.833h7.5C19.066 2.5 20 3.435 20 4.583v13.334A2.086 2.086 0 0117.917 20z" fill="#101315"/><path d="M15.835 8.333c-.92 0-1.667-.747-1.667-1.666 0-.92.748-1.667 1.667-1.667s1.666.747 1.666 1.667c0 .919-.747 1.666-1.666 1.666zm0-2.5a.834.834 0 10.001 1.669.834.834 0 00-.001-1.669zM10.835 17.5c-.92 0-1.667-.748-1.667-1.667 0-.92.747-1.667 1.667-1.667.919 0 1.666.748 1.666 1.667s-.747 1.666-1.666 1.666zm0-2.5a.834.834 0 10.001 1.668.834.834 0 00-.001-1.669zM4.167 10.833a.414.414 0 01-.269-.098C3.738 10.601 0 7.412 0 4.167A4.171 4.171 0 014.167 0a4.171 4.171 0 014.166 4.167c0 3.245-3.738 6.434-3.898 6.568a.414.414 0 01-.268.098zm0-10A3.337 3.337 0 00.833 4.167c0 2.39 2.498 4.912 3.334 5.69.836-.778 3.333-3.3 3.333-5.69A3.337 3.337 0 004.167.833z" fill="#101315"/><path d="M4.167 5.833c-.92 0-1.667-.747-1.667-1.666 0-.92.748-1.667 1.667-1.667s1.666.748 1.666 1.667-.747 1.666-1.666 1.666zm0-2.5a.834.834 0 10.001 1.669.834.834 0 00-.001-1.669zM9.818 15.524a.418.418 0 01-.269-.097l-1.275-1.073a.417.417 0 01.537-.638l1.275 1.073a.418.418 0 01-.268.736zm-2.55-2.145a.414.414 0 01-.269-.099l-1.275-1.073a.417.417 0 01.537-.638l1.275 1.074a.417.417 0 01-.268.736zm-2.551-2.147a.418.418 0 01-.268-.098l-.475-.399a.418.418 0 01.537-.638l.474.4a.418.418 0 01-.268.735zM11.391 15.141a.417.417 0 01-.363-.62l.631-1.13a.416.416 0 11.728.408l-.632 1.13a.418.418 0 01-.364.212zm1.444-2.585a.416.416 0 01-.363-.62l.813-1.454a.416.416 0 11.728.406l-.813 1.455a.417.417 0 01-.365.213zm1.626-2.91a.416.416 0 01-.363-.62l.813-1.454a.417.417 0 11.728.406l-.814 1.455a.417.417 0 01-.364.213z" fill="#101315"/></svg>