<svg width="20" height="20" fill="none" xmlns="http://www.w3.org/2000/svg"><path d="M18.75 3.333H1.25c-.69 0-1.25.56-1.25 1.25v10.833c0 .69.56 1.25 1.25 1.25h17.5c.69 0 1.25-.56 1.25-1.25V4.583c0-.69-.56-1.25-1.25-1.25zm.417 12.083c0 .23-.187.417-.417.417H1.25a.417.417 0 01-.417-.417V4.583c0-.23.187-.417.417-.417h17.5c.23 0 .417.187.417.417v10.833z" fill="#101315"/><path d="M19.712 3.786a.416.416 0 00-.582-.093L10.736 9.76c-.44.319-1.031.32-1.472-.001L.874 3.693a.416.416 0 10-.49.675l8.39 6.067a2.08 2.08 0 002.45 0l8.394-6.067a.417.417 0 00.094-.582z" fill="#101315"/><path d="M9.221 9.755a.417.417 0 00-.582-.092L.394 15.647a.418.418 0 00.49.675l8.245-5.984a.418.418 0 00.092-.583zM19.604 15.646l-8.243-5.984a.416.416 0 10-.49.675l8.243 5.984a.416.416 0 10.49-.675z" fill="#101315"/></svg>