<svg width="24" height="24" fill="none" xmlns="http://www.w3.org/2000/svg"><g clip-path="url(#clip0)"><path d="M.414 11.196l5.87 2.925a.752.752 0 00.711-.023l5.224-3.037-3.162 2.802a.751.751 0 00-.253.562v6.825c0 .72.92 1.023 1.35.45l2.537-3.372 6.274 3.573a.75.75 0 001.106-.504l3.913-19.5a.75.75 0 00-1.008-.846L.476 9.826a.75.75 0 00-.062 1.37zm21.83-8.25l-3.439 17.138-5.945-3.386a.752.752 0 00-.97.2l-1.586 2.108v-4.244l8.551-7.576c.677-.6-.1-1.664-.874-1.21l-11.39 6.622-3.992-1.99 19.645-7.661z" fill="#101315"/></g><defs><clipPath id="clip0"><path fill="#fff" d="M0 0h24v24H0z"/></clipPath></defs></svg>