<svg width="70" height="70" fill="none" xmlns="http://www.w3.org/2000/svg"><g clip-path="url(#clip0)" fill="#36A2F4"><path d="M55.417 70H14.583a5.84 5.84 0 01-5.833-5.833V35a5.84 5.84 0 015.833-5.833h40.834A5.84 5.84 0 0161.25 35v29.167A5.84 5.84 0 0155.417 70zM14.583 32.083A2.92 2.92 0 0011.667 35v29.167a2.92 2.92 0 002.916 2.916h40.834a2.92 2.92 0 002.916-2.916V35a2.92 2.92 0 00-2.916-2.917H14.583z"/><path d="M51.042 32.083a1.459 1.459 0 01-1.459-1.458V17.5c0-8.041-6.542-14.583-14.583-14.583S20.417 9.459 20.417 17.5v13.125a1.459 1.459 0 01-2.917 0V17.5C17.5 7.849 25.349 0 35 0s17.5 7.849 17.5 17.5v13.125c0 .805-.653 1.458-1.458 1.458z"/></g><defs><clipPath id="clip0"><path fill="#fff" d="M0 0h70v70H0z"/></clipPath></defs></svg>