<svg width="94" height="80" fill="none" xmlns="http://www.w3.org/2000/svg"><g clip-path="url(#clip0)" fill="#36A2F4"><path d="M30.626 77c-8.847 0-16.042-7.198-16.042-16.042 0-4.765 2.167-9.336 5.833-12.372V17.208C20.417 11.58 24.997 7 30.626 7s10.208 4.58 10.208 10.208v31.378c3.666 3.036 5.833 7.607 5.833 12.372C46.667 69.802 39.472 77 30.626 77zm0-67.083c-4.02 0-7.292 3.272-7.292 7.291v32.084c0 .458-.216.89-.58 1.163-3.29 2.477-5.253 6.403-5.253 10.503 0 7.237 5.888 13.125 13.125 13.125 7.236 0 13.125-5.888 13.125-13.125 0-4.1-1.963-8.026-5.253-10.503a1.457 1.457 0 01-.58-1.163V17.208c0-4.019-3.273-7.291-7.292-7.291z"/><path d="M30.626 68.25c-4.02 0-7.292-3.27-7.292-7.292s3.273-7.291 7.292-7.291 7.291 3.27 7.291 7.291c0 4.023-3.272 7.292-7.291 7.292zm0-11.667a4.38 4.38 0 00-4.375 4.375 4.38 4.38 0 004.375 4.375A4.38 4.38 0 0035 60.958a4.38 4.38 0 00-4.375-4.375z"/><path d="M30.624 56.583a1.459 1.459 0 01-1.458-1.458V23.042a1.459 1.459 0 012.917 0v32.083c0 .805-.654 1.458-1.459 1.458zM53.958 18.667h-5.834a1.459 1.459 0 010-2.917h5.834a1.459 1.459 0 010 2.917zM53.958 30.333h-5.834a1.459 1.459 0 010-2.916h5.834a1.459 1.459 0 010 2.916zM53.958 42h-5.834a1.459 1.459 0 010-2.917h5.834a1.459 1.459 0 010 2.917z"/></g><defs><clipPath id="clip0"><path fill="#fff" transform="translate(0 7)" d="M0 0h70v70H0z"/></clipPath></defs></svg>