<svg width="70" height="70" fill="none" xmlns="http://www.w3.org/2000/svg"><path fill-rule="evenodd" clip-rule="evenodd" d="M11.667 10.194c-4.027 0-7.292 3.26-7.292 7.282v29.127c0 4.022 3.265 7.282 7.292 7.282h18.057l-2.917 5.825h-6.39a1.457 1.457 0 100 2.913H49.583a1.458 1.458 0 100-2.913h-6.39l-2.917-5.825h18.057c4.027 0 7.292-3.26 7.292-7.282V17.476c0-4.021-3.265-7.282-7.292-7.282H11.667zM39.932 59.71l-2.917-5.825h-4.03l-2.917 5.825h9.864zm-2.047-8.738h20.448a4.372 4.372 0 004.375-4.369V17.476a4.372 4.372 0 00-4.375-4.369H11.667a4.372 4.372 0 00-4.375 4.37v29.126a4.372 4.372 0 004.375 4.37h26.217z" fill="#36A2F4"/></svg>