<svg width="95" height="86" fill="none" xmlns="http://www.w3.org/2000/svg"><g clip-path="url(#clip0)" fill="#36A2F4"><path d="M35 16c-12.866 0-23.334 10.468-23.334 23.333 0 6.193 3.88 11.404 7.3 16.007.587.787 1.167 1.566 1.721 2.342 1.065 1.485 1.788 3.139 2.211 5.052.753 3.395 3.608 5.766 6.945 5.766h10.313c3.337 0 6.192-2.368 6.945-5.766.423-1.914 1.146-3.564 2.21-5.052.555-.776 1.135-1.555 1.721-2.342 3.422-4.603 7.3-9.815 7.3-16.007C58.333 26.468 47.866 16 35 16zm13.69 37.599c-.598.802-1.187 1.595-1.753 2.386-1.28 1.79-2.184 3.847-2.686 6.119-.452 2.05-2.138 3.48-4.095 3.48H29.843c-1.957 0-3.643-1.43-4.095-3.48-.502-2.275-1.409-4.331-2.687-6.12A171.202 171.202 0 0021.31 53.6C18 49.154 14.583 44.56 14.583 39.333c0-11.255 9.158-20.416 20.416-20.416 11.259 0 20.417 9.161 20.417 20.416 0 5.227-3.418 9.82-6.726 14.266zM42.292 71.416H27.708a1.459 1.459 0 000 2.917h14.584a1.459 1.459 0 000-2.916zM42.292 77.25H27.708a1.459 1.459 0 000 2.917h14.584a1.459 1.459 0 000-2.917zM39.374 83.084h-8.75a1.459 1.459 0 000 2.916h8.75a1.459 1.459 0 000-2.916z"/></g><defs><clipPath id="clip0"><path fill="#fff" transform="translate(0 16)" d="M0 0h70v70H0z"/></clipPath></defs></svg>