<svg width="82" height="84" fill="none" xmlns="http://www.w3.org/2000/svg"><path d="M36.52 19.834h-.03c-.804 0-1.443.653-1.443 1.458 0 .805.668 1.458 1.473 1.458a1.459 1.459 0 000-2.916zM27.708 19.834h-5.834a1.459 1.459 0 000 2.916h5.834a1.459 1.459 0 000-2.916zM24.792 78.167a2.918 2.918 0 000-5.834 2.918 2.918 0 000 5.834zM62.427 36.444l-4.52-4.521a4.56 4.56 0 00-6.438 0 4.559 4.559 0 00-1.117 1.837 4.546 4.546 0 00-5.964 3.436 4.571 4.571 0 00-3.856 1.29c-.409.405-.72.871-.942 1.37l-2.614-2.613c-1.72-1.718-4.722-1.718-6.437 0a4.525 4.525 0 00-1.336 3.22c0 1.216.476 2.36 1.336 3.22l11.15 11.15h-2.315c-4.02 0-7.292 3.273-7.292 7.292 0 .805.654 1.458 1.459 1.458h17.645c8.765 0 15.896-7.131 15.896-15.899 0-4.246-1.656-8.24-4.655-11.24zm-11.24 24.223h-15.94a4.38 4.38 0 014.127-2.914h5.833a1.458 1.458 0 001.033-2.491L32.6 41.623a1.627 1.627 0 010-2.31c.619-.615 1.695-.615 2.313 0l9.264 9.264a1.46 1.46 0 002.062-2.065l-3.646-3.646a1.62 1.62 0 01-.479-1.155c0-.435.17-.846.479-1.155.618-.618 1.694-.618 2.313 0l2.187 2.188a1.46 1.46 0 002.062-2.066l-1.458-1.458a1.62 1.62 0 01-.478-1.155 1.635 1.635 0 012.791-1.155l1.458 1.459a1.46 1.46 0 002.062-2.066 1.635 1.635 0 112.313-2.312l4.521 4.52c2.45 2.45 3.8 5.711 3.8 9.176 0 7.158-5.818 12.98-12.979 12.98z" fill="#36A2F4"/><path d="M45.208 66.5H5.833V28.583h37.916v1.459a1.459 1.459 0 002.917 0v-5.834C46.666 18.58 42.086 14 36.458 14H13.124C7.495 14 2.916 18.58 2.916 24.208v49.584C2.916 79.42 7.496 84 13.124 84h23.334c5.629 0 10.208-4.58 10.208-10.208v-5.834a1.46 1.46 0 00-1.458-1.458zM5.833 24.208c0-4.019 3.272-7.291 7.291-7.291h23.334c4.019 0 7.291 3.272 7.291 7.291v1.459H5.833v-1.459zm37.916 49.584c0 4.019-3.272 7.291-7.291 7.291H13.124c-4.019 0-7.291-3.272-7.291-7.291v-4.375h37.916v4.375z" fill="#36A2F4"/></svg>