<svg width="80" height="84" fill="none" xmlns="http://www.w3.org/2000/svg"><g clip-path="url(#clip0)" fill="#36A2F4"><path d="M35 57.75c-4.824 0-8.75-3.926-8.75-8.75s3.926-8.75 8.75-8.75 8.75 3.926 8.75 8.75-3.926 8.75-8.75 8.75zm0-14.583A5.84 5.84 0 0029.167 49 5.84 5.84 0 0035 54.833 5.84 5.84 0 0040.833 49 5.84 5.84 0 0035 43.167z"/><path d="M58.712 74.17c-.373 0-.746-.142-1.032-.425a1.46 1.46 0 010-2.062c6.064-6.064 9.403-14.12 9.403-22.683 0-17.69-14.393-32.083-32.083-32.083C17.31 16.917 2.917 31.31 2.917 49c0 8.563 3.34 16.62 9.403 22.68a1.46 1.46 0 01-2.062 2.062C3.643 67.13 0 58.342 0 49c0-19.3 15.7-35 35-35s35 15.7 35 35c0 9.342-3.643 18.13-10.258 24.742a1.444 1.444 0 01-1.03.429z"/><path d="M50.46 65.916c-.374 0-.747-.142-1.033-.425a1.46 1.46 0 010-2.062c3.865-3.862 5.991-8.987 5.991-14.43 0-11.258-9.158-20.416-20.417-20.416-11.258 0-20.416 9.159-20.416 20.417 0 5.442 2.126 10.567 5.99 14.426a1.46 1.46 0 01-2.062 2.062C14.098 61.078 11.668 55.22 11.668 49c0-12.866 10.468-23.334 23.333-23.334 12.866 0 23.334 10.468 23.334 23.334 0 6.221-2.43 12.078-6.846 16.488a1.444 1.444 0 01-1.03.428z"/><path d="M35.001 84a1.459 1.459 0 01-1.458-1.458v-26.25a1.459 1.459 0 012.917 0v26.25C36.46 83.347 35.806 84 35 84z"/></g><defs><clipPath id="clip0"><path fill="#fff" transform="translate(0 14)" d="M0 0h70v70H0z"/></clipPath></defs></svg>