<svg width="80" height="84" fill="none" xmlns="http://www.w3.org/2000/svg"><path d="M62.708 84H7.292A7.298 7.298 0 010 76.708V21.292A7.298 7.298 0 017.292 14h55.416A7.298 7.298 0 0170 21.292v55.416A7.298 7.298 0 0162.708 84zM7.292 16.917a4.38 4.38 0 00-4.375 4.375v55.416a4.38 4.38 0 004.375 4.375h55.416a4.38 4.38 0 004.375-4.375V21.292a4.38 4.38 0 00-4.375-4.375H7.292z" fill="#36A2F4"/><path d="M42.29 69.417H27.707a4.38 4.38 0 01-4.375-4.375V32.958a4.38 4.38 0 014.375-4.374H42.29a4.38 4.38 0 014.375 4.375v32.083a4.38 4.38 0 01-4.375 4.375zM27.707 31.5c-.802 0-1.458.656-1.458 1.459v32.083c0 .802.656 1.458 1.458 1.458H42.29c.802 0 1.459-.656 1.459-1.458V32.958c0-.802-.657-1.458-1.459-1.458H27.707z" fill="#36A2F4"/><path d="M39.376 60.667h-8.75a1.459 1.459 0 010-2.917h8.75a1.459 1.459 0 010 2.917z" fill="#36A2F4"/></svg>