<svg width="80" height="85" fill="none" xmlns="http://www.w3.org/2000/svg"><path d="M43.75 73.334h-17.5a1.459 1.459 0 000 2.916h17.5a1.459 1.459 0 000-2.916zM33.542 58.75a5.84 5.84 0 00-5.834-5.834 5.84 5.84 0 00-5.833 5.834 5.84 5.84 0 005.833 5.833 5.84 5.84 0 005.834-5.833zm-8.75 0a2.921 2.921 0 012.916-2.917 2.921 2.921 0 012.917 2.917 2.922 2.922 0 01-2.917 2.916 2.921 2.921 0 01-2.916-2.916zM49.584 20.834H20.417c-.805 0-1.458.653-1.458 1.458v26.25c0 .805.653 1.458 1.458 1.458h29.167c.805 0 1.458-.653 1.458-1.458v-26.25c0-.805-.653-1.459-1.458-1.459zm-1.458 26.25h-26.25V41.25h26.25v5.834zm0-8.75h-26.25V32.5h26.25v5.834zm0-8.75h-26.25V23.75h26.25v5.834zM43.75 67.5h-17.5a1.459 1.459 0 000 2.917h17.5a1.459 1.459 0 000-2.917z" fill="#36A2F4"/><path d="M49.583 15H20.417c-4.02 0-7.292 3.273-7.292 7.292v55.416c0 4.02 3.273 7.292 7.292 7.292h2.916c.805 0 1.459-.653 1.459-1.458v-1.459h20.416v1.459c0 .805.654 1.458 1.459 1.458h2.916c4.02 0 7.292-3.272 7.292-7.292V22.292c0-4.02-3.273-7.292-7.292-7.292zm4.375 62.708a4.38 4.38 0 01-4.375 4.375h-1.458v-1.458c0-.805-.653-1.458-1.458-1.458H23.333c-.805 0-1.458.653-1.458 1.458v1.458h-1.458a4.38 4.38 0 01-4.375-4.375V22.292a4.38 4.38 0 014.375-4.375h29.166a4.38 4.38 0 014.375 4.375v55.416z" fill="#36A2F4"/><path d="M42.292 52.916a5.84 5.84 0 00-5.833 5.834 5.84 5.84 0 005.833 5.833 5.84 5.84 0 005.834-5.833 5.84 5.84 0 00-5.834-5.834zm0 8.75a2.921 2.921 0 01-2.916-2.916 2.921 2.921 0 012.916-2.917 2.921 2.921 0 012.917 2.917 2.921 2.921 0 01-2.917 2.916z" fill="#36A2F4"/></svg>